<svg xmlns="http://www.w3.org/2000/svg" xmlns:xlink="http://www.w3.org/1999/xlink" width="1080" zoomAndPan="magnify" viewBox="0 0 810 809.999993" height="1080" preserveAspectRatio="xMidYMid meet" version="1.0"><path fill="#ffffff" d="M 395.375 50.414062 C 196.898438 50.414062 35.773438 211.539062 35.773438 410.011719 C 35.773438 608.484375 196.898438 769.609375 395.375 769.609375 C 593.847656 769.609375 754.972656 608.484375 754.972656 410.011719 C 754.972656 211.539062 593.847656 50.414062 395.375 50.414062 Z M 395.375 98.359375 C 567.382812 98.359375 707.027344 238.003906 707.027344 410.011719 C 707.027344 582.019531 567.382812 721.664062 395.375 721.664062 C 223.367188 721.664062 83.722656 582.019531 83.722656 410.011719 C 83.722656 238.003906 223.367188 98.359375 395.375 98.359375 Z M 221.855469 614.648438 C 262.945312 549.917969 313.097656 505.90625 395.375 505.90625 C 477.652344 505.90625 527.800781 549.917969 568.894531 614.648438 C 575.988281 625.820312 590.804688 629.128906 601.976562 622.03125 C 613.148438 614.933594 616.480469 600.121094 609.382812 588.949219 C 559.015625 509.644531 496.207031 457.957031 395.375 457.957031 C 294.542969 457.957031 231.734375 509.644531 181.363281 588.949219 C 174.269531 600.121094 177.601562 614.933594 188.773438 622.03125 C 199.945312 629.128906 214.757812 625.820312 221.855469 614.648438 Z M 395.375 146.304688 C 316 146.304688 251.535156 210.769531 251.535156 290.144531 C 251.535156 369.519531 316 433.984375 395.375 433.984375 C 474.75 433.984375 539.214844 369.519531 539.214844 290.144531 C 539.214844 210.769531 474.75 146.304688 395.375 146.304688 Z M 395.375 194.253906 C 448.308594 194.253906 491.265625 237.210938 491.265625 290.144531 C 491.265625 343.078125 448.308594 386.039062 395.375 386.039062 C 342.441406 386.039062 299.480469 343.078125 299.480469 290.144531 C 299.480469 237.210938 342.441406 194.253906 395.375 194.253906 Z M 395.375 194.253906 " fill-opacity="1" fill-rule="evenodd"/></svg>