<svg xmlns="http://www.w3.org/2000/svg" xmlns:xlink="http://www.w3.org/1999/xlink" width="1080" zoomAndPan="magnify" viewBox="0 0 810 809.999993" height="1080" preserveAspectRatio="xMidYMid meet" version="1.0"><path fill="#ffffff" d="M 404.996094 251.101562 C 337.9375 251.101562 283.5 305.542969 283.5 372.601562 C 283.5 439.660156 337.9375 494.097656 404.996094 494.097656 C 472.054688 494.097656 526.496094 439.660156 526.496094 372.601562 C 526.496094 305.542969 472.054688 251.101562 404.996094 251.101562 Z M 404.996094 267.300781 C 463.113281 267.300781 510.296875 314.484375 510.296875 372.601562 C 510.296875 430.71875 463.113281 477.898438 404.996094 477.898438 C 346.882812 477.898438 299.699219 430.71875 299.699219 372.601562 C 299.699219 314.484375 346.882812 267.300781 404.996094 267.300781 Z M 346.371094 441.742188 C 360.253906 419.871094 377.199219 405 404.996094 405 C 432.796875 405 449.742188 419.871094 463.625 441.742188 C 466.023438 445.515625 471.027344 446.632812 474.800781 444.234375 C 478.578125 441.839844 479.703125 436.832031 477.304688 433.058594 C 460.289062 406.261719 439.066406 388.800781 404.996094 388.800781 C 370.929688 388.800781 349.707031 406.261719 332.691406 433.058594 C 330.292969 436.832031 331.417969 441.839844 335.191406 444.234375 C 338.96875 446.632812 343.972656 445.515625 346.371094 441.742188 Z M 404.996094 283.503906 C 378.179688 283.503906 356.398438 305.28125 356.398438 332.101562 C 356.398438 358.917969 378.179688 380.699219 404.996094 380.699219 C 431.816406 380.699219 453.597656 358.917969 453.597656 332.101562 C 453.597656 305.28125 431.816406 283.503906 404.996094 283.503906 Z M 404.996094 299.703125 C 422.882812 299.703125 437.398438 314.214844 437.398438 332.101562 C 437.398438 349.984375 422.882812 364.5 404.996094 364.5 C 387.113281 364.5 372.597656 349.984375 372.597656 332.101562 C 372.597656 314.214844 387.113281 299.703125 404.996094 299.703125 Z M 404.996094 299.703125 " fill-opacity="1" fill-rule="evenodd"/></svg>